<?xml version="1.0" encoding="UTF-8" standalone="no"?>
<svg
   xmlns:dc="http://purl.org/dc/elements/1.1/"
   xmlns:cc="http://creativecommons.org/ns#"
   xmlns:rdf="http://www.w3.org/1999/02/22-rdf-syntax-ns#"
   xmlns:svg="http://www.w3.org/2000/svg"
   xmlns="http://www.w3.org/2000/svg"
   xmlns:sodipodi="http://sodipodi.sourceforge.net/DTD/sodipodi-0.dtd"
   xmlns:inkscape="http://www.inkscape.org/namespaces/inkscape"
   width="74.526527"
   height="257.08618"
   viewBox="0 0 74.526528 257.08618"
   version="1.1"
   id="svg8"
   inkscape:version="1.0.1 (3bc2e813f5, 2020-09-07)"
   sodipodi:docname="AvailableRanges1.svg">
  <defs
     id="defs2" />
  <sodipodi:namedview
     id="base"
     pagecolor="#ffffff"
     bordercolor="#666666"
     borderopacity="1.0"
     inkscape:pageopacity="0.0"
     inkscape:pageshadow="2"
     inkscape:zoom="2"
     inkscape:cx="37.263264"
     inkscape:cy="128.54309"
     inkscape:document-units="px"
     inkscape:current-layer="G_AvailableRanges1"
     inkscape:document-rotation="0"
     showgrid="false"
     inkscape:snap-smooth-nodes="true"
     inkscape:window-width="2560"
     inkscape:window-height="1017"
     inkscape:window-x="-8"
     inkscape:window-y="-8"
     inkscape:window-maximized="1"
     units="px">
    <inkscape:grid
       type="xygrid"
       id="grid56"
       originx="-65.659693"
       originy="-21.091423" />
  </sodipodi:namedview>
  <metadata
     id="metadata5">
    <rdf:RDF>
      <cc:Work
         rdf:about="">
        <dc:format>image/svg+xml</dc:format>
        <dc:type
           rdf:resource="http://purl.org/dc/dcmitype/StillImage" />
        <dc:title></dc:title>
      </cc:Work>
    </rdf:RDF>
  </metadata>
  <g
     id="G_AvailableRanges1"
     inkscape:label="可活动范围"
     style="display:inline;opacity:1"
     inkscape:groupmode="layer"
     transform="translate(-65.659695,-21.091424)">
    <path
       style="display:inline;fill:#ffb380;stroke-width:0.264583"
       d="m 97.647433,235.60377 -3.770312,-0.0865 -0.01667,-1.77868 c -0.0092,-0.97827 -1.415076,-31.48476 -3.124237,-67.79221 -1.709158,-36.30745 -3.100641,-66.016521 -3.09218,-66.020165 0.181494,-0.07815 22.168726,0.375935 22.252346,0.459555 0.0663,0.0663 -1.04063,30.53102 -2.4598,67.69942 l -2.5803,67.5789 -1.71927,0.0131 c -0.94559,0.007 -3.415901,-0.0258 -5.489572,-0.0734 z"
       id="P_AvailableRanges1"
       inkscape:label="杯体" />
    <path
       style="display:inline;fill:#ffb380"
       d="m 263.81075,1048.4151 c -8.3e-4,-1.4275 22.21136,-120.72594 22.54289,-121.07458 0.68285,-0.71811 163.91912,-2.07773 164.54539,-1.37053 0.59535,0.67227 25.98529,121.55701 25.58868,121.83091 -0.79678,0.5503 -212.67664,1.1622 -212.67696,0.6142 z"
       id="P_AvailableRanges2"
       transform="scale(0.26458333)"
       inkscape:label="底座" />
  </g>
</svg>
