<?xml version="1.0" encoding="UTF-8" standalone="no"?>
<svg
   xmlns:dc="http://purl.org/dc/elements/1.1/"
   xmlns:cc="http://creativecommons.org/ns#"
   xmlns:rdf="http://www.w3.org/1999/02/22-rdf-syntax-ns#"
   xmlns:svg="http://www.w3.org/2000/svg"
   xmlns="http://www.w3.org/2000/svg"
   xmlns:sodipodi="http://sodipodi.sourceforge.net/DTD/sodipodi-0.dtd"
   xmlns:inkscape="http://www.inkscape.org/namespaces/inkscape"
   width="210mm"
   height="297mm"
   viewBox="0 0 210 297"
   version="1.1"
   id="svg8"
   inkscape:version="1.0.1 (3bc2e813f5, 2020-09-07)"
   sodipodi:docname="AvailableRanges1.svg">
  <defs
     id="defs2" />
  <sodipodi:namedview
     id="base"
     pagecolor="#ffffff"
     bordercolor="#666666"
     borderopacity="1.0"
     inkscape:pageopacity="0.0"
     inkscape:pageshadow="2"
     inkscape:zoom="1"
     inkscape:cx="678.28415"
     inkscape:cy="460.8312"
     inkscape:document-units="mm"
     inkscape:current-layer="layer3"
     inkscape:document-rotation="0"
     showgrid="false"
     inkscape:snap-smooth-nodes="true"
     inkscape:window-width="2560"
     inkscape:window-height="1017"
     inkscape:window-x="-8"
     inkscape:window-y="-8"
     inkscape:window-maximized="1">
    <inkscape:grid
       type="xygrid"
       id="grid56" />
  </sodipodi:namedview>
  <metadata
     id="metadata5">
    <rdf:RDF>
      <cc:Work
         rdf:about="">
        <dc:format>image/svg+xml</dc:format>
        <dc:type
           rdf:resource="http://purl.org/dc/dcmitype/StillImage" />
        <dc:title></dc:title>
      </cc:Work>
    </rdf:RDF>
  </metadata>
  <g
     id="layer3"
     inkscape:label="可活动范围"
     style="display:inline;opacity:1"
     inkscape:groupmode="layer">
    <path
       style="display:inline;fill:#ffb380"
       d="m 369.06117,890.47096 -14.25,-0.32713 -0.063,-6.72255 c -0.0347,-3.6974 -5.34832,-118.99754 -11.80814,-256.22254 -6.45981,-137.225 -11.71896,-249.51127 -11.68698,-249.52504 0.68596,-0.29536 83.78729,1.42085 84.10335,1.73691 0.25051,0.25052 -3.93307,115.39284 -9.29687,255.87181 l -9.75234,255.41632 -6.498,0.0497 c -3.5739,0.0273 -12.9105,-0.0975 -20.748,-0.27745 z"
       id="path22"
       transform="scale(0.26458333)" />
    <path
       style="display:inline;fill:#ffb380"
       d="m 263.81075,1048.4151 c -8.3e-4,-1.4275 22.21136,-120.72594 22.54289,-121.07458 0.68285,-0.71811 163.91912,-2.07773 164.54539,-1.37053 0.59535,0.67227 25.98529,121.55701 25.58868,121.83091 -0.79678,0.5503 -212.67664,1.1622 -212.67696,0.6142 z"
       id="path23"
       transform="scale(0.26458333)" />
  </g>
</svg>
