<?xml version="1.0" encoding="UTF-8" standalone="no"?>
<svg
   xmlns:dc="http://purl.org/dc/elements/1.1/"
   xmlns:cc="http://creativecommons.org/ns#"
   xmlns:rdf="http://www.w3.org/1999/02/22-rdf-syntax-ns#"
   xmlns:svg="http://www.w3.org/2000/svg"
   xmlns="http://www.w3.org/2000/svg"
   xmlns:sodipodi="http://sodipodi.sourceforge.net/DTD/sodipodi-0.dtd"
   xmlns:inkscape="http://www.inkscape.org/namespaces/inkscape"
   width="210mm"
   height="297mm"
   viewBox="0 0 210 297"
   version="1.1"
   id="svg8"
   inkscape:version="1.0.1 (3bc2e813f5, 2020-09-07)"
   sodipodi:docname="Contour1.svg">
  <defs
     id="defs2" />
  <sodipodi:namedview
     id="base"
     pagecolor="#ffffff"
     bordercolor="#666666"
     borderopacity="1.0"
     inkscape:pageopacity="0.0"
     inkscape:pageshadow="2"
     inkscape:zoom="1"
     inkscape:cx="678.28415"
     inkscape:cy="460.8312"
     inkscape:document-units="mm"
     inkscape:current-layer="layer2"
     inkscape:document-rotation="0"
     showgrid="false"
     inkscape:snap-smooth-nodes="true"
     inkscape:window-width="2560"
     inkscape:window-height="1017"
     inkscape:window-x="-8"
     inkscape:window-y="-8"
     inkscape:window-maximized="1">
    <inkscape:grid
       type="xygrid"
       id="grid56" />
  </sodipodi:namedview>
  <metadata
     id="metadata5">
    <rdf:RDF>
      <cc:Work
         rdf:about="">
        <dc:format>image/svg+xml</dc:format>
        <dc:type
           rdf:resource="http://purl.org/dc/dcmitype/StillImage" />
        <dc:title></dc:title>
      </cc:Work>
    </rdf:RDF>
  </metadata>
  <g
     inkscape:groupmode="layer"
     id="layer2"
     inkscape:label="轮廓"
     style="display:inline">
    <path
       id="path146"
       style="display:inline;fill:none;stroke:#000000;stroke-width:0.264583px;stroke-linecap:butt;stroke-linejoin:miter;stroke-opacity:1"
       d="m 80.167492,241.71856 1.964434,1.40316 2.993416,0.56127 28.811658,-0.28064 2.15152,-0.56126 1.49675,-1.2161 m -42.094992,3.36767 44.106152,-0.42098 m 6.86123,32.9186 -6.86123,-32.9186 m 0,0 0.92128,-2.77559 m 0,0 -2.93244,-0.1711 -0.93545,-2.15152 -0.93544,-3.18051 -4.98622,-1.34298 m -0.42811,-134.93381 -5.19432,135.92602 M 85.989586,99.639241 110.30005,100.01617 c 0,0 5.40078,0.47814 10.81297,-1.392734 m -44.894116,0.08505 c 0,0 3.652192,1.308734 9.770682,0.930758 m 0.188987,-2.38597 26.085107,0.328367 z m 26.004757,-2.834821 c 0,0 -18.728717,-0.188991 -26.004757,-0.283481 m 26.004757,0.283481 0.0803,3.163188 c 0,0 9.36038,-0.225013 8.84934,1.041795 m 14.32986,-76.99881 c 0,0 3.46337,0.411385 4.5973,7.025968 0,0 -5.66964,3.212798 -10.77232,15.686012 0,0 -3.02381,5.102677 -1.32292,17.386906 0,0 1.05833,20.032739 -15.76161,32.694941 M 85.460416,41.993154 c 0,0 0.18899,-10.205359 8.31548,-8.315477 8.126484,1.889882 14.741074,8.504465 14.741074,8.504465 l 3.77976,-0.188989 c 0,0 6.89317,-24.148289 23.14615,-20.368527 M 86.178573,97.253274 v -3.118302 c 0,0 -18.672024,-13.777237 -20.183924,-20.769796 -1.51191,-6.992559 5.85863,-8.126487 5.85863,-8.126487 l -0.56697,-1.700895 c 0,0 -5.10267,-10.583333 6.61459,-10.205355 0,0 -3.59077,-9.82738 7.559517,-11.339285 m -9.241512,56.715329 c 0,0 -0.670908,-1.69144 9.959669,-1.455209 m 1.200071,2.428495 6.35,136.194271 M 121.11302,98.623436 110.72812,234.95 l -5.62239,0.99219 -11.377086,-0.0662 -6.482291,-0.66146 L 76.218904,98.708483 m 11.027449,136.506047 -5.301517,1.07845 -1.496711,2.99342 -0.280633,2.43216 -2.43215,-0.0935 -2.245064,3.3676 -6.080384,32.83407 57.047766,-0.33645 1.79911,-1.0007 -7.73906,-34.69349"
       sodipodi:nodetypes="ccccccccccccccccccccccccccccccccccccccccccccccscccccscccccccccccccccc" />
  </g>
</svg>
